<svg width="384" height="518" viewBox="0 0 384 518" fill="none" xmlns="http://www.w3.org/2000/svg">
<path d="M7.23072 183.425C-2.29162 193.423 -1.90562 209.247 8.09271 218.77C18.091 228.293 33.9154 227.907 43.4374 217.907L7.23072 183.425ZM210.104 42.908C219.627 32.9097 219.241 17.0854 209.241 7.56336C199.244 -1.95898 183.421 -1.57298 173.897 8.42535L210.104 42.908ZM210.104 8.42535C200.581 -1.57298 184.757 -1.95898 174.761 7.56336C164.761 17.0854 164.374 32.9097 173.897 42.908L210.104 8.42535ZM340.564 217.907C350.087 227.907 365.911 228.293 375.907 218.77C385.907 209.247 386.294 193.423 376.771 183.425L340.564 217.907ZM217.001 25.6667C217.001 11.8597 205.807 0.666687 192.001 0.666687C178.194 0.666687 167.001 11.8597 167.001 25.6667H217.001ZM167.001 492.333C167.001 506.14 178.194 517.333 192.001 517.333C205.807 517.333 217.001 506.14 217.001 492.333H167.001ZM43.4374 217.907L210.104 42.908L173.897 8.42535L7.23072 183.425L43.4374 217.907ZM173.897 42.908L340.564 217.907L376.771 183.425L210.104 8.42535L173.897 42.908ZM167.001 25.6667V492.333H217.001V25.6667H167.001Z" fill="#222222"/>
</svg>
